# xmcd CD database file
#
# Track frame offsets:
#	150
#	17894
#	34361
#	44501
#	61048
#	79117
#	96774
#	116276
#	129436
#	145850
#	159375
#	178287
#	188364
#	199661
#
# Disc length: 2915 seconds
#
# Revision: 2
# Processed by: cddbd v1.5PL3 Copyright (c) Steve Scherf et al.
# Submitted via: CDex 1.51
#
DISCID=b50b610e
DTITLE=A Tribe Called Quest - The Low End Theory
DYEAR=1991
DGENRE=Rap
TTITLE0=Excursions
TTITLE1=Buggin' Out
TTITLE2=Rap Promoter
TTITLE3=Butter
TTITLE4=Verses From The Abstract
TTITLE5=Show Business
TTITLE6=Vibes And Stuff
TTITLE7=The Infamous Date Rape
TTITLE8=Check The Rhime
TTITLE9=Everything Is Fair
TTITLE10=Jazz (We've Got)
TTITLE11=Skypager
TTITLE12=What?
TTITLE13=Scenario
EXTD=YEAR: 1991
EXTT0=
EXTT1=
EXTT2=
EXTT3=
EXTT4=
EXTT5=
EXTT6=
EXTT7=
EXTT8=
EXTT9=
EXTT10=
EXTT11=
EXTT12=
EXTT13=
PLAYORDER=
